<svg xmlns="http://www.w3.org/2000/svg" viewBox="0 0 32 32">
<rect x="1" y="1" width="30" height="30" rx="7" fill="#b1762b"/>
<rect x="1.5" y="1.5" width="29" height="29" rx="6.5" fill="none" stroke="#000" stroke-opacity="0.12" stroke-width="1"/>
<path d="M16 11.2 C13 9.3 8.5 9.1 5.5 10.4 L5.5 22.4 C8.5 21.1 13 21.3 16 23.2 C19 21.3 23.5 21.1 26.5 22.4 L26.5 10.4 C23.5 9.1 19 9.3 16 11.2 Z" fill="#f3ede2"/>
<path d="M16 11.2 L16 23.2" stroke="#6d4711" stroke-width="1.4" stroke-linecap="round"/>
<path d="M8 13.2 C10 12.6 12.5 12.6 14 13.4 M18 13.4 C19.5 12.6 22 12.6 24 13.2 M8 16.2 C10 15.6 12.5 15.6 14 16.4 M18 16.4 C19.5 15.6 22 15.6 24 16.2" stroke="#6d4711" stroke-width="0.9" stroke-linecap="round" fill="none" opacity="0.55"/>
</svg>